<svg width="331" height="100" viewBox="0 0 331 100" fill="none" xmlns="http://www.w3.org/2000/svg">
<g clip-path="url(#clip0_2954_44)">
<path d="M153.58 0.22H179.38C191.42 0.22 202.08 8.49 204.5 19.9C204.9 21.83 205.12 23.73 205.14 25.56C205.32 38.75 194.15 51 179.36 51C176.11 51.05 166.36 51.02 166.36 51.02L166.44 77.77H153.58V0.22ZM166.37 38.79H179.03C187.97 38.79 192.38 31.29 192.38 25.32C192.38 18.12 186.34 12.32 179.38 12.32H166.37V38.8V38.79ZM237.77 22.05C253.89 22 266.43 34.4 266.47 50.43C266.49 66.49 254.09 78.87 237.91 78.92C221.64 78.96 209.14 66.62 209.13 50.49C209.12 34.47 221.58 22.09 237.77 22.05ZM237.82 33.38C228.56 33.37 221.48 40.7 221.42 50.34C221.36 60.17 228.42 67.6 237.85 67.6C247 67.61 254.09 60.14 254.08 50.48C254.08 40.82 247.02 33.4 237.82 33.38ZM318.55 58.43C317.31 62.08 312.79 67.83 303.11 67.83C293.94 67.83 287.01 60.03 287.3 52.5C287.3 52.5 329.34 52.46 329.39 52.5C332.04 33.52 320.29 22.06 303.46 22.06C283.34 22.06 274.92 38.1 274.92 49.91C274.92 70.79 291.12 78.91 303.06 78.91C316.12 78.91 326.19 72.7 330.88 60.88L318.55 58.43ZM303.27 33.27C312.82 33.27 317.45 39.1 317.21 43.79H288.43C288.43 40.08 294.26 33.27 303.27 33.27ZM104.28 19.52C103.603 18.84 102.794 18.3042 101.904 17.945C101.014 17.5858 100.06 17.4106 99.1001 17.43H99.0701C97.7329 17.43 96.4088 17.1663 95.1736 16.6539C93.9384 16.1416 92.8164 15.3907 91.8718 14.4442C90.9271 13.4977 90.1784 12.3742 89.6685 11.138C89.1586 9.90184 88.8975 8.57722 88.9001 7.24C88.9147 6.30115 88.7436 5.36868 88.3968 4.49612C88.05 3.62355 87.5343 2.82808 86.8792 2.15536C86.2242 1.48265 85.4427 0.945949 84.5797 0.576071C83.7166 0.206193 82.789 0.0104227 81.8501 0L24.5301 0C23.5913 0.00648949 22.6631 0.198844 21.799 0.565962C20.9349 0.93308 20.1521 1.46769 19.4957 2.13894C18.8394 2.8102 18.3224 3.60479 17.9747 4.47688C17.6271 5.34897 17.4556 6.28128 17.4701 7.22C17.4701 9.92521 16.3955 12.5196 14.4826 14.4325C12.5697 16.3454 9.97533 17.42 7.27012 17.42V17.43C6.31919 17.4099 5.37387 17.5806 4.49 17.932C3.60612 18.2833 2.80159 18.8082 2.12392 19.4756C1.44625 20.143 0.90918 20.9394 0.544409 21.8179C0.179638 22.6963 -0.00543352 23.6389 0.00012144 24.59V42.93C-0.00409374 43.8803 0.181966 44.8218 0.547336 45.6991C0.912705 46.5763 1.44999 47.3716 2.12752 48.0379C2.80505 48.7043 3.60912 49.2282 4.49233 49.5789C5.37555 49.9297 6.32003 50.1 7.27012 50.08C9.97014 50.08 12.56 51.1505 14.472 53.0569C16.384 54.9633 17.4622 57.55 17.4701 60.25V78.85C17.4701 81.23 20.4701 82.28 21.9501 80.43L32.2801 67.5H81.8501C82.7877 67.4909 83.7142 67.2967 84.5766 66.9285C85.4389 66.5603 86.22 66.0255 86.875 65.3546C87.5301 64.6838 88.0462 63.8901 88.3937 63.0193C88.7412 62.1484 88.9133 61.2175 88.9001 60.28V60.27C88.9001 54.63 93.4501 50.07 99.1001 50.07C100.051 50.0928 100.998 49.9244 101.883 49.5747C102.768 49.2251 103.573 48.7014 104.252 48.0347C104.931 47.3679 105.469 46.5716 105.835 45.6931C106.2 44.8145 106.386 43.8715 106.38 42.92V24.58C106.38 22.75 105.68 20.92 104.28 19.52ZM92.1001 43.12C92.0738 45.8078 90.9875 48.3766 89.0775 50.2679C87.1675 52.1592 84.5881 53.2201 81.9001 53.22H24.4801C21.7922 53.2201 19.2128 52.1592 17.3028 50.2679C15.3927 48.3766 14.3065 45.8078 14.2801 43.12V24.39C14.3065 21.7022 15.3927 19.1334 17.3028 17.2421C19.2128 15.3508 21.7922 14.2899 24.4801 14.29H81.8901C84.5781 14.2899 87.1575 15.3508 89.0675 17.2421C90.9775 19.1334 92.0638 21.7022 92.0901 24.39V43.12H92.1001Z" fill="white"/>
<path d="M37.3299 23.01C35.431 23.01 33.6098 23.7644 32.267 25.1071C30.9243 26.4499 30.1699 28.2711 30.1699 30.17V37.33C30.1699 38.2703 30.3551 39.2013 30.7149 40.07C31.0748 40.9387 31.6022 41.728 32.267 42.3929C32.9319 43.0578 33.7212 43.5852 34.5899 43.945C35.4586 44.3048 36.3897 44.49 37.3299 44.49C38.2702 44.49 39.2012 44.3048 40.0699 43.945C40.9386 43.5852 41.7279 43.0578 42.3928 42.3929C43.0577 41.728 43.5851 40.9387 43.9449 40.07C44.3047 39.2013 44.4899 38.2703 44.4899 37.33V30.17C44.4899 26.22 41.2899 23.01 37.3299 23.01ZM69.0399 23.01C67.141 23.01 65.3198 23.7644 63.977 25.1071C62.6343 26.4499 61.8799 28.2711 61.8799 30.17V37.33C61.8799 39.229 62.6343 41.0501 63.977 42.3929C65.3198 43.7357 67.141 44.49 69.0399 44.49C70.9389 44.49 72.76 43.7357 74.1028 42.3929C75.4456 41.0501 76.1999 39.229 76.1999 37.33V30.17C76.1999 26.22 72.9999 23.01 69.0399 23.01Z" fill="white"/>
<path d="M36.7201 98.92L46.7601 86.37H96.3301C97.2677 86.3609 98.1942 86.1667 99.0565 85.7985C99.9189 85.4303 100.7 84.8955 101.355 84.2246C102.01 83.5538 102.526 82.7601 102.874 81.8893C103.221 81.0184 103.393 80.0875 103.38 79.15C103.377 76.45 104.445 73.8591 106.35 71.9452C108.254 70.0313 110.84 68.9506 113.54 68.94H113.59C114.541 68.9614 115.486 68.792 116.369 68.4418C117.253 68.0915 118.058 67.5676 118.736 66.901C119.414 66.2344 119.951 65.4386 120.316 64.5607C120.681 63.6828 120.866 62.7407 120.86 61.79V43.69C120.86 41.96 120.29 40.27 119.23 38.9L117.23 36.29V57.07C117.234 58.0203 117.048 58.9618 116.683 59.8391C116.318 60.7163 115.78 61.5116 115.103 62.1779C114.425 62.8443 113.621 63.3682 112.738 63.719C111.855 64.0697 110.91 64.24 109.96 64.22H109.92C107.222 64.2306 104.638 65.3099 102.733 67.2216C100.829 69.1334 99.7601 71.7217 99.7601 74.42C99.7733 75.3588 99.601 76.2911 99.2529 77.1631C98.9049 78.0352 98.3881 78.8299 97.7321 79.5017C97.0761 80.1735 96.2939 80.7091 95.4304 81.0777C94.5668 81.4464 93.639 81.6409 92.7001 81.65H43.1301L32.2101 95.31C31.7833 95.9121 31.603 96.6546 31.7061 97.3853C31.8093 98.1161 32.188 98.7797 32.7648 99.2401C33.3416 99.7005 34.0726 99.9228 34.8081 99.8614C35.5435 99.8 36.2276 99.4596 36.7201 98.91V98.92Z" fill="url(#paint0_linear_2954_44)"/>
<path d="M25.2 85.57L35.88 72.22H85.45C86.3893 72.2122 87.3177 72.0186 88.1819 71.6504C89.046 71.2822 89.8287 70.7466 90.485 70.0746C91.1412 69.4025 91.658 68.6073 92.0056 67.7346C92.3531 66.862 92.5245 65.9292 92.51 64.99C92.51 59.37 97.04 54.81 102.65 54.79H102.71C103.661 54.8114 104.607 54.6417 105.492 54.2908C106.376 53.94 107.181 53.4152 107.859 52.7475C108.537 52.0798 109.074 51.2828 109.439 50.4038C109.803 49.5247 109.987 48.5815 109.98 47.63V26.83L112.6 30.26C113.654 31.631 114.227 33.3109 114.23 35.04V53.14C114.234 54.0903 114.048 55.0318 113.683 55.9091C113.317 56.7863 112.78 57.5815 112.103 58.2479C111.425 58.9142 110.621 59.4382 109.738 59.7889C108.855 60.1397 107.91 60.31 106.96 60.29H106.91C104.213 60.3032 101.632 61.3837 99.7298 63.2951C97.8277 65.2066 96.76 67.7934 96.76 70.49C96.7732 71.4288 96.6009 72.361 96.2528 73.2331C95.9048 74.1052 95.388 74.8999 94.732 75.5717C94.076 76.2434 93.2938 76.779 92.4303 77.1477C91.5667 77.5164 90.6389 77.7109 89.7 77.72H40.13L30.48 89.8C29.9154 90.4846 29.1041 90.9197 28.2214 91.0113C27.3387 91.103 26.4554 90.8438 25.7622 90.2897C25.069 89.7356 24.6215 88.9312 24.5163 88.05C24.4111 87.1688 24.6567 86.2816 25.2 85.58V85.57Z" fill="url(#paint1_linear_2954_44)"/>
</g>
<defs>
<linearGradient id="paint0_linear_2954_44" x1="171.27" y1="21.67" x2="5.4701" y2="124.46" gradientUnits="userSpaceOnUse">
<stop stop-color="#46A6F7"/>
<stop offset="1" stop-color="#8364FF"/>
</linearGradient>
<linearGradient id="paint1_linear_2954_44" x1="24.75" y1="103.29" x2="122.57" y2="32.55" gradientUnits="userSpaceOnUse">
<stop stop-color="#FF44D3"/>
<stop offset="1" stop-color="#CF4BFF"/>
</linearGradient>
<clipPath id="clip0_2954_44">
<rect width="331" height="100" fill="white"/>
</clipPath>
</defs>
</svg>
